# File created by Blade
# Date/Time:  Wed Apr 08 17:19:54 2015
# Frame Rate: 120.000 fps
#------------------------------------------------------
:FULLY-SPECIFIED
:DEGREES
1593
root 8.075923 36.054955 -6.203475 179.685595 -85.795347 -185.897611
Spine 10.621381 1.125638 -5.268084
Head 13.903266 8.143008 8.481108
LeftShoulder -5.556703 8.169668 29.259501
LeftArm 14.772360 -34.612498 -33.918454
LeftForeArm 24.021766 -0.000000 6.583701
LeftHand -10.982049 0.000000 -16.750969
LeftHandThumb1 -26.253704 0.000000 33.147579
RightShoulder -24.545323 -38.171631 -10.305653
RightArm 50.143031 48.460877 51.072054
RightForeArm 4.493689 -0.000000 2.129307
RightHand -3.235280 -0.000000 10.317303
RightHandThumb1 -24.326973 -0.000000 -32.862282
LeftUpLeg 10.570427 13.869450 8.854729
LeftLeg 6.542510 -0.000000 -0.000000
LeftFoot -10.893770 7.681350 -13.883175
LeftToeBase 7.303006 -0.000000 -0.000000
RightUpLeg 12.966897 -11.404366 -7.721928
RightLeg 3.285900 -0.000000 -0.000000
RightFoot -11.634009 -0.088574 18.281935
RightToeBase 7.652321 -0.000000 -0.000000
1594
root 8.061913 36.053713 -6.198849 179.281373 -85.689200 -185.532005
Spine 10.629436 1.188807 -5.208969
Head 13.941173 8.163110 8.519205
LeftShoulder -5.711810 8.339579 29.148351
LeftArm 15.150015 -34.690327 -33.926756
LeftForeArm 24.089343 -0.000000 6.418882
LeftHand -11.008383 -0.000000 -16.705367
LeftHandThumb1 -26.253704 0.000000 33.147579
RightShoulder -24.502882 -38.145324 -10.380316
RightArm 50.268518 48.431533 51.111725
RightForeArm 4.266814 0.000000 1.939295
RightHand -3.193869 -0.000000 10.320897
RightHandThumb1 -24.326973 -0.000000 -32.862282
LeftUpLeg 10.640549 13.892329 8.885392
LeftLeg 6.576898 -0.000000 -0.000000
LeftFoot -10.940483 7.731590 -13.994062
LeftToeBase 7.305690 -0.000000 -0.000000
RightUpLeg 12.978231 -11.385365 -7.731373
RightLeg 3.340459 -0.000000 -0.000000
RightFoot -11.633163 -0.006637 18.281869
RightToeBase 7.636995 -0.000000 -0.000000
1595
root 8.046830 36.052101 -6.191118 178.950009 -85.552272 -185.227763
Spine 10.620813 1.255260 -5.145124
Head 13.968760 8.223876 8.518240
LeftShoulder -5.735298 8.328372 29.150592
LeftArm 15.128668 -34.724989 -33.910314
LeftForeArm 24.142381 -0.000000 6.373801
LeftHand -11.052013 0.000000 -16.640267
LeftHandThumb1 -26.253704 0.000000 33.147579
RightShoulder -24.406493 -38.111567 -10.499849
RightArm 50.334943 48.405039 51.125331
RightForeArm 4.067417 -0.000000 1.792455
RightHand -3.199368 0.000000 10.380468
RightHandThumb1 -24.326973 -0.000000 -32.862282
LeftUpLeg 10.707442 13.953636 8.906053
LeftLeg 6.617024 -0.000000 -0.000000
LeftFoot -10.989081 7.743517 -14.078941
LeftToeBase 7.564147 -0.000000 -0.000000
RightUpLeg 12.971178 -11.322244 -7.741307
RightLeg 3.397363 -0.000000 -0.000000
RightFoot -11.641591 0.052869 18.261776
RightToeBase 7.657880 -0.000000 -0.000000
1596
root 8.030522 36.050238 -6.181588 178.748590 -85.412956 -185.060581
Spine 10.619208 1.309696 -5.085270
Head 13.995491 8.316383 8.475151
LeftShoulder -5.756268 8.305221 29.143524
LeftArm 15.058757 -34.765204 -33.878912
LeftForeArm 24.240157 -0.000000 6.338785
LeftHand -11.071735 0.000000 -16.549580
LeftHandThumb1 -26.253704 0.000000 33.147579
RightShoulder -24.306315 -38.075563 -10.633823
RightArm 50.392433 48.347910 51.110215
RightForeArm 3.922528 0.000000 1.641212
RightHand -3.274495 -0.000000 10.439627
RightHandThumb1 -24.326973 -0.000000 -32.862282
LeftUpLeg 10.777828 14.022424 8.917172
LeftLeg 6.665721 -0.000000 -0.000000
LeftFoot -11.045541 7.757414 -14.167042
LeftToeBase 7.830809 -0.000000 -0.000000
RightUpLeg 12.977204 -11.273582 -7.767568
RightLeg 3.445323 -0.000000 -0.000000
RightFoot -11.644417 0.119469 18.194262
RightToeBase 7.650407 -0.000000 -0.000000
1597
root 8.014531 36.047907 -6.170025 178.666742 -85.284048 -185.009259
Spine 10.620129 1.340419 -5.036847
Head 13.998840 8.441345 8.430115
LeftShoulder -5.737539 8.174660 29.214510
LeftArm 14.805787 -34.752055 -33.856245
LeftForeArm 24.336251 0.000000 6.358276
LeftHand -11.129047 -0.000000 -16.521207
LeftHandThumb1 -26.253704 0.000000 33.147579
RightShoulder -24.211781 -38.050818 -10.749733
RightArm 50.516599 48.321816 51.135287
RightForeArm 3.772291 -0.000000 1.465634
RightHand -3.313258 -0.000000 10.514498
RightHandThumb1 -24.326973 -0.000000 -32.862282
LeftUpLeg 10.838517 14.065682 8.906472
LeftLeg 6.702625 -0.000000 -0.000000
LeftFoot -11.095445 7.845336 -14.204075
LeftToeBase 7.891218 -0.000000 -0.000000
RightUpLeg 12.984086 -11.216844 -7.802878
RightLeg 3.485008 -0.000000 -0.000000
RightFoot -11.658243 0.182965 18.182437
RightToeBase 7.671455 -0.000000 -0.000000
1598
root 7.997186 36.045860 -6.156833 178.667513 -85.154743 -185.044689
Spine 10.623159 1.372738 -4.986563
Head 14.005070 8.576338 8.351347
LeftShoulder -5.806363 8.238422 29.137791
LeftArm 14.849242 -34.843245 -33.800348
LeftForeArm 24.407308 -0.000000 6.235299
LeftHand -11.182504 -0.000000 -16.529923
LeftHandThumb1 -26.253704 0.000000 33.147579
RightShoulder -24.126034 -38.018036 -10.874390
RightArm 50.634084 48.293737 51.167755
RightForeArm 3.664248 -0.000000 1.312788
RightHand -3.311467 -0.000000 10.633691
RightHandThumb1 -24.326973 -0.000000 -32.862282
LeftUpLeg 10.905670 14.134621 8.894029
LeftLeg 6.742018 -0.000000 -0.000000
LeftFoot -11.139518 7.920967 -14.254631
LeftToeBase 7.820833 -0.000000 -0.000000
RightUpLeg 13.000100 -11.177990 -7.853278
RightLeg 3.522287 -0.000000 -0.000000
RightFoot -11.677730 0.252438 18.166757
RightToeBase 7.728194 -0.000000 -0.000000
1599
root 7.978670 36.043689 -6.140903 178.726519 -85.011918 -185.136588
Spine 10.615666 1.435640 -4.934668
Head 14.013409 8.669743 8.257741
LeftShoulder -5.825783 8.239537 29.129523
LeftArm 14.829124 -34.929776 -33.813915
LeftForeArm 24.524812 -0.000000 6.113032
LeftHand -11.245305 -0.000000 -16.423108
LeftHandThumb1 -26.253704 0.000000 33.147579
RightShoulder -24.086062 -38.018623 -10.963456
RightArm 50.785824 48.250901 51.197902
RightForeArm 3.748233 0.000000 1.159850
RightHand -3.249981 -0.000000 10.559590
RightHandThumb1 -24.326973 -0.000000 -32.862282
LeftUpLeg 10.991405 14.194666 8.866007
LeftLeg 6.755070 -0.000000 -0.000000
LeftFoot -11.195147 7.990477 -14.305546
LeftToeBase 7.863681 -0.000000 -0.000000
RightUpLeg 13.010635 -11.130509 -7.913829
RightLeg 3.560667 -0.000000 -0.000000
RightFoot -11.688041 0.328895 18.158964
RightToeBase 7.757223 -0.000000 -0.000000
1600
root 7.957501 36.041909 -6.124284 178.901717 -84.861677 -185.367432
Spine 10.631361 1.493446 -4.894832
Head 14.013568 8.794271 8.152818
LeftShoulder -5.836107 8.253643 29.091150
LeftArm 14.735405 -34.970676 -33.740180
LeftForeArm 24.721076 -0.000000 6.010051
LeftHand -11.214160 -0.000000 -16.473194
LeftHandThumb1 -26.253704 0.000000 33.147579
RightShoulder -24.016742 -38.011836 -11.059051
RightArm 50.903299 48.252434 51.216641
RightForeArm 3.671049 -0.000000 1.049756
RightHand -3.247017 -0.000000 10.709491
RightHandThumb1 -24.326973 -0.000000 -32.862282
LeftUpLeg 11.124074 14.298492 8.832010
LeftLeg 6.732066 -0.000000 -0.000000
LeftFoot -11.214786 8.071198 -14.269655
LeftToeBase 7.947949 -0.000000 -0.000000
RightUpLeg 13.052558 -11.058797 -7.991696
RightLeg 3.585823 -0.000000 -0.000000
RightFoot -11.705151 0.404979 18.159640
RightToeBase 7.838470 -0.000000 -0.000000
1601
root 7.935978 36.040003 -6.107408 178.978222 -84.710996 -185.490510
Spine 10.631536 1.549778 -4.841909
Head 14.023712 8.902992 8.036535
LeftShoulder -5.848719 8.292141 29.047682
LeftArm 14.670276 -35.010637 -33.690405
LeftForeArm 24.923857 -0.000000 5.902458
LeftHand -11.294466 0.000000 -16.408691
LeftHandThumb1 -26.253704 0.000000 33.147579
RightShoulder -23.934294 -37.972901 -11.174917
RightArm 50.970960 48.244344 51.204719
RightForeArm 3.579428 -0.000000 0.961644
RightHand -3.230101 -0.000000 10.817292
RightHandThumb1 -24.326973 -0.000000 -32.862282
LeftUpLeg 11.277899 14.414239 8.815284
LeftLeg 6.664395 -0.000000 -0.000000
LeftFoot -11.241095 8.114925 -14.296298
LeftToeBase 8.011451 -0.000000 -0.000000
RightUpLeg 13.083806 -11.018478 -8.055361
RightLeg 3.610654 -0.000000 -0.000000
RightFoot -11.713058 0.440547 18.067489
RightToeBase 7.817839 -0.000000 -0.000000
1602
root 7.911456 36.038275 -6.090329 179.138210 -84.546378 -185.704788
Spine 10.631137 1.634617 -4.800551
Head 14.020407 9.001642 7.933039
LeftShoulder -5.767221 8.160217 29.099319
LeftArm 14.342024 -34.891859 -33.591603
LeftForeArm 25.120874 0.000000 5.842420
LeftHand -11.305359 -0.000000 -16.424950
LeftHandThumb1 -26.253704 0.000000 33.147579
RightShoulder -23.870884 -37.948685 -11.250294
RightArm 51.006439 48.259726 51.142215
RightForeArm 3.400045 -0.000000 0.891760
RightHand -3.231854 0.000000 11.119057
RightHandThumb1 -24.326973 -0.000000 -32.862282
LeftUpLeg 11.472500 14.546668 8.795825
LeftLeg 6.548686 -0.000000 -0.000000
LeftFoot -11.237892 8.155390 -14.335182
LeftToeBase 7.962514 -0.000000 -0.000000
RightUpLeg 13.129308 -10.900852 -8.137908
RightLeg 3.628088 -0.000000 -0.000000
RightFoot -11.710794 0.553388 18.158239
RightToeBase 7.884194 -0.000000 -0.000000
1603
root 7.888646 36.036544 -6.073023 179.117899 -84.397422 -185.726426
Spine 10.620770 1.696879 -4.736551
Head 14.021551 9.100546 7.827580
LeftShoulder -5.765851 8.122882 29.095918
LeftArm 14.205866 -34.863900 -33.548625
LeftForeArm 25.438642 -0.000000 5.745239
LeftHand -11.243140 -0.000000 -16.561237
LeftHandThumb1 -26.253704 0.000000 33.147579
RightShoulder -23.791486 -37.908123 -11.346518
RightArm 51.013250 48.253247 51.059764
RightForeArm 3.406029 0.000000 0.826055
RightHand -3.239524 -0.000000 11.197556
RightHandThumb1 -24.326973 -0.000000 -32.862282
LeftUpLeg 11.662146 14.664925 8.790010
LeftLeg 6.409528 -0.000000 -0.000000
LeftFoot -11.233030 8.189253 -14.352851
LeftToeBase 7.966572 -0.000000 -0.000000
RightUpLeg 13.161169 -10.870409 -8.198905
RightLeg 3.647217 -0.000000 -0.000000
RightFoot -11.703866 0.606632 18.094194
RightToeBase 7.863724 -0.000000 -0.000000
1604
root 7.863870 36.035457 -6.053692 179.219058 -84.237806 -185.877286
Spine 10.613766 1.766653 -4.686125
Head 14.019434 9.197120 7.726474
LeftShoulder -5.814463 8.152733 29.055103
LeftArm 14.214511 -34.828709 -33.540533
LeftForeArm 25.538042 -0.000000 5.576151
LeftHand -11.267294 -0.000000 -16.580057
LeftHandThumb1 -26.253704 0.000000 33.147579
RightShoulder -23.711983 -37.868174 -11.435739
RightArm 51.039583 48.268186 50.994715
RightForeArm 3.361245 0.000000 0.751911
RightHand -3.228668 0.000000 11.275392
RightHandThumb1 -24.326973 -0.000000 -32.862282
LeftUpLeg 11.885316 14.801452 8.772486
LeftLeg 6.233128 -0.000000 -0.000000
LeftFoot -11.201253 8.214973 -14.360970
LeftToeBase 7.966719 -0.000000 -0.000000
RightUpLeg 13.208631 -10.777792 -8.273574
RightLeg 3.650861 -0.000000 -0.000000
RightFoot -11.700648 0.662951 18.115040
RightToeBase 7.929868 -0.000000 -0.000000
